<mxfile host="65bd71144e">
    <diagram id="IKMklJgyA7eRqlG_98MY" name="Page-1">
        <mxGraphModel dx="1134" dy="808" grid="1" gridSize="10" guides="1" tooltips="1" connect="1" arrows="1" fold="1" page="1" pageScale="1" pageWidth="850" pageHeight="1100" math="0" shadow="0">
            <root>
                <mxCell id="0"/>
                <mxCell id="1" parent="0"/>
                <mxCell id="2" value="" style="whiteSpace=wrap;html=1;aspect=fixed;" parent="1" vertex="1">
                    <mxGeometry x="120" y="50" width="580" height="580" as="geometry"/>
                </mxCell>
                <mxCell id="8" value="" style="rounded=0;whiteSpace=wrap;html=1;" parent="1" vertex="1">
                    <mxGeometry x="130" y="60" width="560" height="70" as="geometry"/>
                </mxCell>
                <mxCell id="3" value="Titre /// Et lien de retour vers acceuil" style="rounded=0;whiteSpace=wrap;html=1;" parent="1" vertex="1">
                    <mxGeometry x="210" y="70" width="360" height="50" as="geometry"/>
                </mxCell>
                <mxCell id="4" value="Nav /DropDown" style="rounded=0;whiteSpace=wrap;html=1;" parent="1" vertex="1">
                    <mxGeometry x="140" y="70" width="60" height="50" as="geometry"/>
                </mxCell>
                <mxCell id="5" value="Langue Ou date" style="rounded=0;whiteSpace=wrap;html=1;" parent="1" vertex="1">
                    <mxGeometry x="580" y="70" width="100" height="50" as="geometry"/>
                </mxCell>
                <mxCell id="6" value="" style="rounded=0;whiteSpace=wrap;html=1;" parent="1" vertex="1">
                    <mxGeometry x="130" y="140" width="560" height="420" as="geometry"/>
                </mxCell>
                <mxCell id="7" value="Footer" style="rounded=0;whiteSpace=wrap;html=1;" parent="1" vertex="1">
                    <mxGeometry x="130" y="570" width="560" height="50" as="geometry"/>
                </mxCell>
                <mxCell id="10" value="Img Acceuil" style="rounded=0;whiteSpace=wrap;html=1;" parent="1" vertex="1">
                    <mxGeometry x="140" y="150" width="540" height="140" as="geometry"/>
                </mxCell>
                <mxCell id="11" value="Petit Description de qui nous somme" style="rounded=0;whiteSpace=wrap;html=1;" parent="1" vertex="1">
                    <mxGeometry x="140" y="300" width="180" height="130" as="geometry"/>
                </mxCell>
                <mxCell id="12" value="page de galerie de 12 photos." style="rounded=0;whiteSpace=wrap;html=1;" parent="1" vertex="1">
                    <mxGeometry x="330" y="300" width="170" height="130" as="geometry"/>
                </mxCell>
                <mxCell id="13" value="Une page &quot;catalogue&quot; qui propose une liste de produits:" style="rounded=0;whiteSpace=wrap;html=1;" parent="1" vertex="1">
                    <mxGeometry x="510" y="300" width="170" height="130" as="geometry"/>
                </mxCell>
                <mxCell id="15" value="Une page contenant un tableau des caractéristiques détaillées des produits" style="rounded=0;whiteSpace=wrap;html=1;" parent="1" vertex="1">
                    <mxGeometry x="510" y="440" width="170" height="110" as="geometry"/>
                </mxCell>
                <mxCell id="16" value="Une page contact avec un formulaire qui devra contenir :" style="rounded=0;whiteSpace=wrap;html=1;" parent="1" vertex="1">
                    <mxGeometry x="326.25" y="440" width="173.75" height="110" as="geometry"/>
                </mxCell>
                <mxCell id="17" value="Une page qui propose le détail d’un produit:" style="rounded=0;whiteSpace=wrap;html=1;" parent="1" vertex="1">
                    <mxGeometry x="140" y="440" width="180" height="110" as="geometry"/>
                </mxCell>
                <mxCell id="18" value="BACK GROUND fonce mauve mauve pale" style="rounded=0;whiteSpace=wrap;html=1;" parent="1" vertex="1">
                    <mxGeometry x="60" y="680" width="190" height="60" as="geometry"/>
                </mxCell>
                <mxCell id="19" value="Bordure rose" style="rounded=0;whiteSpace=wrap;html=1;" parent="1" vertex="1">
                    <mxGeometry x="60" y="760" width="190" height="60" as="geometry"/>
                </mxCell>
                <mxCell id="20" value="ECriture noir" style="rounded=0;whiteSpace=wrap;html=1;" parent="1" vertex="1">
                    <mxGeometry x="270" y="680" width="170" height="60" as="geometry"/>
                </mxCell>
                <mxCell id="21" value="&lt;div style=&quot;color: rgb(212 , 212 , 212) ; background-color: rgb(30 , 30 , 30) ; font-family: &amp;#34;consolas&amp;#34; , &amp;#34;courier new&amp;#34; , monospace ; font-size: 14px ; line-height: 19px&quot;&gt;&amp;nbsp; &amp;nbsp; &amp;nbsp; &amp;nbsp; &lt;span style=&quot;color: #9cdcfe&quot;&gt;background&lt;/span&gt;: &lt;span style=&quot;color: #dcdcaa&quot;&gt;linear-gradient&lt;/span&gt;(&lt;span style=&quot;color: #b5cea8&quot;&gt;45deg&lt;/span&gt;, &lt;span style=&quot;color: #ce9178&quot;&gt;black&lt;/span&gt;,&lt;span style=&quot;color: #dcdcaa&quot;&gt;rgb&lt;/span&gt;(&lt;span style=&quot;color: #b5cea8&quot;&gt;117&lt;/span&gt;, &lt;span style=&quot;color: #b5cea8&quot;&gt;10&lt;/span&gt;, &lt;span style=&quot;color: #b5cea8&quot;&gt;131&lt;/span&gt;));&lt;/div&gt;" style="rounded=0;whiteSpace=wrap;html=1;" parent="1" vertex="1">
                    <mxGeometry x="260" y="760" width="260" height="90" as="geometry"/>
                </mxCell>
                <mxCell id="22" value="EVAN" style="rounded=0;whiteSpace=wrap;html=1;" vertex="1" parent="1">
                    <mxGeometry x="10" width="150" height="40" as="geometry"/>
                </mxCell>
            </root>
        </mxGraphModel>
    </diagram>
</mxfile>